<?xml version="1.0" encoding="utf-8"?>
<!-- Generator: Adobe Illustrator 28.0.0, SVG Export Plug-In . SVG Version: 6.00 Build 0)  -->
<svg version="1.1" id="Слой_1" xmlns="http://www.w3.org/2000/svg" xmlns:xlink="http://www.w3.org/1999/xlink" x="0px" y="0px"
	 viewBox="110 150 440 325" xml:space="preserve">
<style type="text/css">
	.st0{fill:url(#SVGID_1_);}
	.st1{fill:#34444D;}
	.st2{fill:#32424A;}
	.st3{fill:url(#SVGID_00000033336235912239378510000012427006165206139283_);}
</style>
<g>
	<g>
		<linearGradient id="SVGID_1_" gradientUnits="userSpaceOnUse" x1="149.6795" y1="265.1544" x2="388.1682" y2="265.1544">
			<stop  offset="0" style="stop-color:#BEBEBE"/>
			<stop  offset="1.909441e-02" style="stop-color:#C4C4C4"/>
			<stop  offset="0.1053" style="stop-color:#DADADA"/>
			<stop  offset="0.207" style="stop-color:#EBEBEB"/>
			<stop  offset="0.333" style="stop-color:#F6F6F6"/>
			<stop  offset="0.5096" style="stop-color:#FDFDFD"/>
			<stop  offset="1" style="stop-color:#FFFFFF"/>
		</linearGradient>
		<path class="st0" d="M149.7,258.5v92.8c0,0,50.8-39.3,136.1-61.8c47.2-11.2,102.4-8.1,102.4-8.1v-41.8l-106-60.6L149.7,258.5z"/>
		<g>
			<path class="st1" d="M388.2,281.4c0,0,1.3,0,3.5-0.1c6.4-12.4,16-22.4,28.5-29.6c4.4-2.5,8.9-4.6,13.4-6.2
				c-0.8-0.3-1.5-0.6-2.3-0.9C350.4,194.7,280.8,153,280.8,153L111.5,259.4l18.9,13L282.2,179l106,60.6V281.4z"/>
		</g>
		<path class="st2" d="M181.1,331.4l0.1-77h55.2v51.9c-8.2,3.1-19,6.4-28.8,11.5C197.7,322.9,189.3,326.2,181.1,331.4z"/>
		<polygon class="st2" points="275.2,292.8 275.2,243.2 294.7,243.2 294.7,287.5 		"/>
		<polygon class="st2" points="302.4,286.4 302.4,243.2 322,243.2 322,283.7 		"/>
		<polygon class="st2" points="329.7,282.7 329.7,243.2 349.2,243.2 349.2,281.4 		"/>
	</g>
	<g>
			<linearGradient id="SVGID_00000145751226470765023020000004489842655902647432_" gradientUnits="userSpaceOnUse" x1="204.6886" y1="421.6538" x2="444.8414" y2="263.4108">
			<stop  offset="0" style="stop-color:#FF9A0F"/>
			<stop  offset="0.1826" style="stop-color:#FE870C"/>
			<stop  offset="0.4207" style="stop-color:#FE7608"/>
			<stop  offset="0.6806" style="stop-color:#FD6C07"/>
			<stop  offset="1" style="stop-color:#FD6906"/>
		</linearGradient>
		<path style="fill:url(#SVGID_00000145751226470765023020000004489842655902647432_);" d="M468.5,324.7
			c-59.1-27.2-105.6-32.4-169.4-19.3c-44,9-83.1,28.7-119.1,54.9c-0.4,0.3-0.7,0.5-1.1,0.8c-4.7,3.4-4.4,10.5,0.6,13.6l80.8,49.7
			c3.4,2.1,7.8,1.4,10.4-1.5c23.3-26.2,50.3-48.4,81.7-65.5c41.2-22.4,70.1-36.2,117.3-32C469.1,325.1,468.8,324.8,468.5,324.7z"/>
	</g>
	<path class="st1" d="M527.4,276.9c-21.9-26.2-61.2-37.2-97.6-16.3c-16.3,9.4-27.7,23.6-33.5,41.6c-7.1,22.2-4.6,43.5,6.9,63.5
		c0.7,1.3,0.5,2.8-0.6,3.8c-3.1,2.6-6.1,5.2-9.2,7.8c-1,0.9-2.5,1-3.6,0.2c-4.8-3.4-9.8-3.1-14.7,1.2c-17,14.6-33.8,29.4-50.9,43.9
		c-1.4,1.2-15.4,14.5-22.4,21.2c-2,1.9-1.7,5.2,0.7,6.7l31.1,19.2c5.3,1.8,7-2.5,9.7-4.5c6.7-5.2,25.6-23.2,31.4-28.3
		c9.9-8.6,19.8-17.3,29.8-25.9c4.3-3.7,5.3-9.2,2.4-14.1c-0.3-0.6-0.3-1.8,0.1-2.2c3.3-2.9,6.7-5.8,10.1-8.6c1.1-0.9,2.6-0.9,3.8,0
		c34.8,27.9,83.8,19.6,108.5-12.2C548.6,348.8,554.1,308.9,527.4,276.9z M495.4,374.3c-26.4,14.2-57,6.6-73.4-20.5
		c-16.2-26.7-6.2-59.6,18.9-74.3c29.2-17.1,61.5-5.3,75.7,19.8C532.1,326.7,522,359.5,495.4,374.3z"/>
</g>
</svg>