<?xml version="1.0" encoding="UTF-8" standalone="no" ?>
<!DOCTYPE svg PUBLIC "-//W3C//DTD SVG 1.1//EN" "http://www.w3.org/Graphics/SVG/1.1/DTD/svg11.dtd">
<svg xmlns="http://www.w3.org/2000/svg" xmlns:xlink="http://www.w3.org/1999/xlink" version="1.1" width="1080" height="1080" viewBox="0 0 1080 1080" xml:space="preserve">
<desc>Created with Fabric.js 5.2.4</desc>
<defs>
</defs>
<rect x="0" y="0" width="100%" height="100%" fill="transparent"></rect>
<g transform="matrix(1 0 0 1 540 540)" id="eddd329e-7301-4a5e-84f9-a5c56b80667b"  >
<rect style="stroke: none; stroke-width: 1; stroke-dasharray: none; stroke-linecap: butt; stroke-dashoffset: 0; stroke-linejoin: miter; stroke-miterlimit: 4; fill: rgb(255,255,255); fill-rule: nonzero; opacity: 1; visibility: hidden;" vector-effect="non-scaling-stroke"  x="-540" y="-540" rx="0" ry="0" width="1080" height="1080" />
</g>
<g transform="matrix(1 0 0 1 540 540)" id="dba11017-3b81-4ddd-ad27-8804f5dd4fff"  >
</g>
<g transform="matrix(61.89 0 0 61.89 540 540)" id="d4bbad71-c6fa-41e0-9d60-d6a9cc730ce0"  >
<path style="stroke: rgb(0,0,0); stroke-width: 0; stroke-dasharray: none; stroke-linecap: butt; stroke-dashoffset: 0; stroke-linejoin: miter; stroke-miterlimit: 4; fill: rgb(35,24,21); fill-rule: nonzero; opacity: 1;" vector-effect="non-scaling-stroke"  transform=" translate(-19.89, -19.99)" d="M 23.5 28.5 L 23.5 28.5 C 22.6 28.5 21.7 28.2 21 27.7 C 18.9 26.2 17.5 24.9 16.3 23.7 C 15.100000000000001 22.5 13.8 21.099999999999998 12.3 19 C 10.8 17 11.4 14.4 13.700000000000001 12 C 14.4 11.3 15.600000000000001 11.3 16.3 12 L 17.7 13.4 C 18 13.700000000000001 18.2 14.200000000000001 18.2 14.700000000000001 C 18.2 15.200000000000001 18 15.700000000000001 17.7 16 L 17.099999999999998 16.6 C 16.9 16.8 16.999999999999996 17.1 17.099999999999998 17.3 C 17.799999999999997 18.2 18.999999999999996 19.5 19.7 20.1 C 20.4 20.8 21.599999999999998 22 22.5 22.700000000000003 C 22.7 22.900000000000002 23 22.900000000000002 23.2 22.700000000000003 L 23.8 22.1 C 24.5 21.400000000000002 25.7 21.400000000000002 26.400000000000002 22.1 L 27.8 23.5 C 28.1 23.8 28.3 24.3 28.3 24.8 C 28.3 25.3 28.1 25.8 27.8 26.1 C 26.5 27.7 25 28.5 23.5 28.5 z M 15 12.5 C 14.8 12.5 14.6 12.6 14.4 12.7 C 12.4 14.7 12 16.799999999999997 13.1 18.4 C 14.6 20.5 15.8 21.799999999999997 17 23 C 18.2 24.2 19.5 25.4 21.6 26.9 C 23.200000000000003 28 25.3 27.599999999999998 27.3 25.599999999999998 C 27.5 25.4 27.5 25.2 27.5 24.999999999999996 C 27.5 24.799999999999997 27.4 24.599999999999998 27.3 24.399999999999995 L 25.8 23 C 25.5 22.7 24.900000000000002 22.7 24.6 23 L 24 23.6 C 23.5 24.1 22.7 24.1 22 23.6 C 21 22.900000000000002 19.8 21.6 19.1 20.900000000000002 C 18.400000000000002 20.200000000000003 17.1 18.900000000000002 16.400000000000002 18.000000000000004 C 15.900000000000002 17.300000000000004 15.900000000000002 16.500000000000004 16.400000000000002 16.000000000000004 L 17.000000000000004 15.400000000000004 C 17.200000000000003 15.200000000000005 17.200000000000003 15.000000000000004 17.200000000000003 14.800000000000004 C 17.200000000000003 14.600000000000005 17.1 14.400000000000004 17.000000000000004 14.200000000000005 L 15.600000000000003 12.800000000000004 C 15.4 12.6 15.2 12.5 15 12.5 z" stroke-linecap="round" />
</g>
</svg>