<?xml version="1.0" encoding="utf-8"?>
<!-- Generator: Adobe Illustrator 28.0.0, SVG Export Plug-In . SVG Version: 6.00 Build 0)  -->
<svg version="1.1" id="Слой_1" xmlns="http://www.w3.org/2000/svg" xmlns:xlink="http://www.w3.org/1999/xlink" x="0px" y="0px"
	 viewBox="0 0 1408 614.7" style="enable-background:new 0 0 1408 614.7;" xml:space="preserve">
<style type="text/css">
	.st0{fill:url(#SVGID_1_);}
	.st1{fill:#34444D;}
	.st2{fill:#32424A;}
	.st3{fill:url(#SVGID_00000033336235912239378510000012427006165206139283_);}
</style>
<g>
	<g>
		<linearGradient id="SVGID_1_" gradientUnits="userSpaceOnUse" x1="149.6795" y1="265.1544" x2="388.1682" y2="265.1544">
			<stop  offset="0" style="stop-color:#BEBEBE"/>
			<stop  offset="1.909441e-02" style="stop-color:#C4C4C4"/>
			<stop  offset="0.1053" style="stop-color:#DADADA"/>
			<stop  offset="0.207" style="stop-color:#EBEBEB"/>
			<stop  offset="0.333" style="stop-color:#F6F6F6"/>
			<stop  offset="0.5096" style="stop-color:#FDFDFD"/>
			<stop  offset="1" style="stop-color:#FFFFFF"/>
		</linearGradient>
		<path class="st0" d="M149.7,258.5v92.8c0,0,50.8-39.3,136.1-61.8c47.2-11.2,102.4-8.1,102.4-8.1v-41.8l-106-60.6L149.7,258.5z"/>
		<g>
			<path class="st1" d="M388.2,281.4c0,0,1.3,0,3.5-0.1c6.4-12.4,16-22.4,28.5-29.6c4.4-2.5,8.9-4.6,13.4-6.2
				c-0.8-0.3-1.5-0.6-2.3-0.9C350.4,194.7,280.8,153,280.8,153L111.5,259.4l18.9,13L282.2,179l106,60.6V281.4z"/>
		</g>
		<path class="st2" d="M181.1,331.4l0.1-77h55.2v51.9c-8.2,3.1-19,6.4-28.8,11.5C197.7,322.9,189.3,326.2,181.1,331.4z"/>
		<polygon class="st2" points="275.2,292.8 275.2,243.2 294.7,243.2 294.7,287.5 		"/>
		<polygon class="st2" points="302.4,286.4 302.4,243.2 322,243.2 322,283.7 		"/>
		<polygon class="st2" points="329.7,282.7 329.7,243.2 349.2,243.2 349.2,281.4 		"/>
	</g>
	<g>
		<path class="st1" d="M640.5,157.6v60.6h-14.7v-23.9h-23.3v23.9h-14.7v-60.6h14.7v22.7h23.3v-22.7H640.5z"/>
		<path class="st1" d="M667.3,171.6v9h24.6v14h-24.6v9.5h27v14h-41.7v-60.6h41.7v14H667.3z"/>
		<path class="st1" d="M750.7,200.4c0,11.9-9,18.9-23.4,18.9c-13.8,0-24.5-6.8-25.2-20.7H717c0.7,4.9,3.8,6.7,9.9,6.7
			c6.9,0,8.9-2.4,8.9-6.3c0-3.4-1.7-5-8.1-5h-8.4v-12.8h7c4.6,0,7.8-0.8,7.8-4.7c0-3.2-1.6-6-8.2-6c-5,0-7.7,1.5-8.5,6.1h-14.9
			c0.9-13.1,10.6-20.1,23.8-20.1c13.8,0,22.7,7.7,22.7,18c0,5.1-2.7,9.6-6.8,12C747.5,188.9,750.7,193.8,750.7,200.4z"/>
		<path class="st1" d="M795.9,205.6h-22.7l-4.3,12.5h-15.6l22-60.6h18.5l22,60.6h-15.6L795.9,205.6z M791,191.6l-6.5-18.9l-6.5,18.9
			H791z"/>
		<path class="st1" d="M872,200.4c0,11.4-8.6,17.7-20.7,17.7H824v-60.6h27.3c10.6,0,18.6,5.2,18.6,15.9c0,5.9-2.5,9.4-7.1,11.9
			C869,187.6,872,193.6,872,200.4z M849.3,171.6h-10.6v9.1h11.2c3.3,0,5.1-1.4,5.1-4.6C855,172.4,852.9,171.6,849.3,171.6z
			 M857.1,199.1c0-3.4-1.2-5-6.1-5h-12.3v10H851C855.9,204.1,857.1,202.2,857.1,199.1z"/>
		<path class="st1" d="M933.6,157.6v60.6h-14.7v-25.3l1.2-12.8l-22.8,38.2h-16.7v-60.6h14.7v25.3l-1.1,12.8l22.7-38.2H933.6z"/>
		<path class="st1" d="M943.1,187.9c0-17.8,13.2-31.4,31.4-31.4c14.9,0,26.2,9.3,29.5,22.5h-15.7c-2.4-5.3-7.4-8.5-13.8-8.5
			c-10,0-16.5,7.3-16.5,17.4s6.5,17.4,16.5,17.4c6.4,0,11.3-3.2,13.8-8.5h15.7c-3.3,13.2-14.6,22.5-29.5,22.5
			C956.3,219.3,943.1,205.7,943.1,187.9z"/>
		<path class="st1" d="M1065.6,157.6v60.6h-14.7v-25.3l1.2-12.8l-22.8,38.2h-16.7v-60.6h14.7v25.3l-1.1,12.8l22.7-38.2H1065.6z"/>
		<path class="st1" d="M1137.9,157.6v60.6h-14.7v-40l-15.1,23.1h-1.4l-15.1-23.1v40h-14.7v-60.6h16.7l13.8,20.8l13.8-20.8H1137.9z"
			/>
		<path class="st1" d="M1188.7,205.6H1166l-4.3,12.5h-15.6l22-60.6h18.5l22,60.6H1193L1188.7,205.6z M1183.9,191.6l-6.5-18.9
			l-6.5,18.9H1183.9z"/>
		<path class="st1" d="M1264.5,157.6v60.6h-14.7v-19.9h-5.3l-13.6,19.9h-18l15.4-21.6c-7.2-2.9-11.6-9.1-11.6-18.6
			c0-12.8,8-20.3,20.8-20.3H1264.5z M1231.6,178.3c0,4.3,2.5,6.6,7.5,6.6h10.6v-13.3h-10.6C1234.1,171.6,1231.6,174,1231.6,178.3z"
			/>
		<path class="st1" d="M645.5,273.1c0,17.8-13,31.4-31.1,31.4c-15,0-26.6-9.3-29.7-22.5h15.7c2.3,5.6,7.8,8.5,13.9,8.5
			c7.5,0,13-4.2,15.1-10.7h-20.9v-14h20.6c-2.3-6.1-7.6-10-15-10c-6.2,0-11.6,2.9-13.8,8.5h-15.7c2.9-13.2,14.5-22.5,29.6-22.5
			C632.5,241.7,645.5,255.3,645.5,273.1z"/>
		<path class="st1" d="M690.4,303.4L670.1,276v27.4h-14.7v-60.6h14.7v25.8l18.9-25.8h18.1l-21.8,29.2l23.4,31.3H690.4z"/>
		<path class="st1" d="M708.7,273.1c0-17.8,13.2-31.4,31.4-31.4c14.9,0,26.2,9.3,29.5,22.5h-15.7c-2.4-5.3-7.4-8.5-13.8-8.5
			c-10,0-16.5,7.3-16.5,17.4s6.5,17.4,16.5,17.4c6.4,0,11.3-3.2,13.8-8.5h15.7c-3.3,13.2-14.6,22.5-29.5,22.5
			C722,304.5,708.7,290.9,708.7,273.1z"/>
		<path class="st1" d="M831.4,303.4h-14.7v-46.5h-23.3v46.5h-14.7v-60.6h14.7h38V303.4z"/>
		<path class="st1" d="M858.2,256.8v9h24.6v14h-24.6v9.5h27v14h-41.7v-60.6h41.7v14H858.2z"/>
		<path class="st1" d="M942.1,263.6c0,13.4-9,21.1-21.8,21.1H909v18.7h-14.7v-60.6h26C933.1,242.8,942.1,250.2,942.1,263.6z
			 M927.2,263.8c0-4.6-2.5-6.9-7.5-6.9H909v13.8h10.6C924.7,270.7,927.2,268.3,927.2,263.8z"/>
		<path class="st1" d="M995.4,256.8h-16.5v46.5h-14.7v-46.5h-16.4v-14h47.7V256.8z"/>
		<path class="st1" d="M1056.1,242.8v60.6h-14.7V278l1.2-12.8l-22.8,38.2h-16.7v-60.6h14.7v25.3l-1.1,12.8l22.7-38.2H1056.1z"/>
		<path class="st1" d="M1113.4,285.7c0,11.9-9,18.9-23.4,18.9c-13.8,0-24.5-6.8-25.2-20.7h14.9c0.7,4.9,3.8,6.7,9.9,6.7
			c6.9,0,8.9-2.4,8.9-6.3c0-3.4-1.7-5-8.1-5h-8.4v-12.8h7c4.6,0,7.8-0.8,7.8-4.7c0-3.2-1.6-6-8.2-6c-5,0-7.7,1.5-8.5,6.1h-14.9
			c0.9-13.1,10.6-20.1,23.8-20.1c13.8,0,22.7,7.7,22.7,18c0,5.1-2.7,9.6-6.8,12C1110.2,274.1,1113.4,279.1,1113.4,285.7z"/>
		<path class="st1" d="M1158.5,290.8h-22.7l-4.3,12.5h-15.6l22-60.6h18.5l22,60.6h-15.6L1158.5,290.8z M1153.7,276.8l-6.5-18.9
			l-6.5,18.9H1153.7z"/>
	</g>
	<g>
		
			<linearGradient id="SVGID_00000145751226470765023020000004489842655902647432_" gradientUnits="userSpaceOnUse" x1="204.6886" y1="421.6538" x2="444.8414" y2="263.4108">
			<stop  offset="0" style="stop-color:#FF9A0F"/>
			<stop  offset="0.1826" style="stop-color:#FE870C"/>
			<stop  offset="0.4207" style="stop-color:#FE7608"/>
			<stop  offset="0.6806" style="stop-color:#FD6C07"/>
			<stop  offset="1" style="stop-color:#FD6906"/>
		</linearGradient>
		<path style="fill:url(#SVGID_00000145751226470765023020000004489842655902647432_);" d="M468.5,324.7
			c-59.1-27.2-105.6-32.4-169.4-19.3c-44,9-83.1,28.7-119.1,54.9c-0.4,0.3-0.7,0.5-1.1,0.8c-4.7,3.4-4.4,10.5,0.6,13.6l80.8,49.7
			c3.4,2.1,7.8,1.4,10.4-1.5c23.3-26.2,50.3-48.4,81.7-65.5c41.2-22.4,70.1-36.2,117.3-32C469.1,325.1,468.8,324.8,468.5,324.7z"/>
	</g>
	<path class="st1" d="M527.4,276.9c-21.9-26.2-61.2-37.2-97.6-16.3c-16.3,9.4-27.7,23.6-33.5,41.6c-7.1,22.2-4.6,43.5,6.9,63.5
		c0.7,1.3,0.5,2.8-0.6,3.8c-3.1,2.6-6.1,5.2-9.2,7.8c-1,0.9-2.5,1-3.6,0.2c-4.8-3.4-9.8-3.1-14.7,1.2c-17,14.6-33.8,29.4-50.9,43.9
		c-1.4,1.2-15.4,14.5-22.4,21.2c-2,1.9-1.7,5.2,0.7,6.7l31.1,19.2c5.3,1.8,7-2.5,9.7-4.5c6.7-5.2,25.6-23.2,31.4-28.3
		c9.9-8.6,19.8-17.3,29.8-25.9c4.3-3.7,5.3-9.2,2.4-14.1c-0.3-0.6-0.3-1.8,0.1-2.2c3.3-2.9,6.7-5.8,10.1-8.6c1.1-0.9,2.6-0.9,3.8,0
		c34.8,27.9,83.8,19.6,108.5-12.2C548.6,348.8,554.1,308.9,527.4,276.9z M495.4,374.3c-26.4,14.2-57,6.6-73.4-20.5
		c-16.2-26.7-6.2-59.6,18.9-74.3c29.2-17.1,61.5-5.3,75.7,19.8C532.1,326.7,522,359.5,495.4,374.3z"/>
	<g>
		<path class="st1" d="M624.3,373.6v45h-7.3v-18.8l0.7-15.9l-22.6,34.8h-8.5v-45h7.3v18.8l-0.6,15.9l22.5-34.7H624.3z"/>
		<path class="st1" d="M672.1,418.6h-7.3v-38h-23.1v38h-7.3v-45h7.3h30.3V418.6z"/>
		<path class="st1" d="M700.2,396.1c0-13.3,9.8-23.3,23.2-23.3c10.4,0,18.7,6.3,21.5,15.6h-7.8c-2.4-5.3-7.5-8.7-13.8-8.7
			c-9.2,0-15.8,6.9-15.8,16.3s6.6,16.3,15.8,16.3c6.4,0,11.4-3.4,13.8-8.7h7.8c-2.8,9.3-11.1,15.6-21.5,15.6
			C710,419.3,700.2,409.4,700.2,396.1z"/>
		<path class="st1" d="M786.7,402.9H758c0.6,6.5,5.1,10.1,11.1,10.1c4.2,0,7.8-1.8,9.4-5.3h7.5c-2.8,7.9-9.5,11.6-17,11.6
			c-10.7,0-18.4-7.7-18.4-18.4c0-10.7,7.6-18.5,18.2-18.5C780.2,382.5,787.4,391.3,786.7,402.9z M758.4,397h20.6
			c-1.1-4.8-4.8-8.2-10.1-8.2C763.3,388.8,759.6,392.2,758.4,397z"/>
		<path class="st1" d="M826.9,383.2v35.3h-7.3V390h-11.7l-2.3,14.8c-1.7,10.5-5.7,14.5-11.7,14.5c-1.2,0-2.4-0.2-3.6-0.4v-6.6
			c0.7,0.1,1.4,0.2,2.1,0.2c3.4,0,4.9-1.9,6-8.4l3.3-20.9H826.9z"/>
		<path class="st1" d="M885.7,400.9c0,10.6-8,18.4-18.3,18.4c-9.1,0-16.4-6.2-18-15h-6.9v14.2h-7.3v-35.3h7.3v14.3h6.9
			c1.5-8.9,9-15,18-15C877.6,382.5,885.7,390.3,885.7,400.9z M878.4,400.9c0-6.7-4.8-11.5-11-11.5c-6.1,0-11,4.7-11,11.5
			s4.9,11.5,11,11.5C873.6,412.4,878.4,407.7,878.4,400.9z"/>
		<path class="st1" d="M919.9,390h-11.5v28.5h-7.3V390h-11.6v-6.8h18.8h11.5V390z"/>
		<path class="st1" d="M958.5,383.2v35.3h-7.3v-14.8l0.4-11.2l-17.5,26h-8.5v-35.3h7.3V398l-0.5,11.1l17.5-25.9H958.5z"/>
		<path class="st1" d="M1000.2,383.2v35.3H993V404h-18.8v14.6h-7.3v-35.3h7.3v13.9H993v-13.9H1000.2z"/>
		<path class="st1" d="M1063.3,405.9c0,7.9-5.5,12.7-14.9,12.7h-19.4v-45h19.1c8.7,0,13.7,4.2,13.7,11.6c0,4.6-1.9,7.5-6,9.4
			C1060.9,396.1,1063.3,400.4,1063.3,405.9z M1047.2,380.5h-11v11.6h11.1c5.3,0,7.2-2.1,7.2-5.8
			C1054.5,382.4,1052.4,380.5,1047.2,380.5z M1055.9,405.3c0-4.1-1.9-6.5-7.8-6.5h-11.9v12.9h12
			C1054.1,411.6,1055.9,409.1,1055.9,405.3z"/>
		<path class="st1" d="M1080.6,414.8c0,2.6-2.1,4.6-4.8,4.6c-2.7,0-4.7-1.9-4.7-4.6s2-4.5,4.7-4.5
			C1078.6,410.3,1080.6,412.1,1080.6,414.8z"/>
		<path class="st1" d="M1152.2,396.1c0,13.2-10.2,23.3-23.3,23.3c-12,0-21.5-8.3-23.1-19.7h-7.5v19h-7.3v-45h7.3v19.1h7.4
			c1.6-11.5,11.1-19.9,23.1-19.9C1142,372.8,1152.2,382.8,1152.2,396.1z M1144.8,396.1c0-9.4-6.9-16.3-15.9-16.3s-15.9,6.9-16,16.3
			c0.1,9.4,6.9,16.3,16,16.3S1144.8,405.5,1144.8,396.1z"/>
		<path class="st1" d="M1170.2,414.8c0,2.6-2.1,4.6-4.8,4.6c-2.7,0-4.7-1.9-4.7-4.6s2-4.5,4.7-4.5
			C1168.1,410.3,1170.2,412.1,1170.2,414.8z"/>
	</g>
	<rect x="581.7" y="330.4" class="st1" width="596.7" height="16.2"/>
</g>
</svg>
